<?xml version="1.0" encoding="UTF-8"?>
<svg width="109px" height="212px" viewBox="0 0 109 212" version="1.1" xmlns="http://www.w3.org/2000/svg" xmlns:xlink="http://www.w3.org/1999/xlink">
    <!-- Generator: Sketch 61.2 (89653) - https://sketch.com -->
    <title>bottomlines</title>
    <desc>Created with Sketch.</desc>
    <g id="Page-1" stroke="none" stroke-width="1" fill="none" fill-rule="evenodd">
        <g id="Artboard" transform="translate(-193.000000, -438.000000)">
            <g id="bottomlines" transform="translate(115.084272, 413.480932)">
                <g id="bottom-design" transform="translate(114.334936, 129.357695) rotate(-120.000000) translate(-114.334936, -129.357695) translate(5.834936, 60.357695)">
                    <g id="Lines" transform="translate(22.000000, 48.000000)" stroke="#0494AF" stroke-width="0.3">
                        <line x1="72.5" y1="64.5" x2="68.5" y2="78.5" id="Line-Copy-15" stroke-linecap="square"></line>
                        <line x1="109.5" y1="44.5" x2="78.5" y2="40.5" id="Line-Copy-27" opacity="0.531133743" stroke-linecap="square"></line>
                        <line x1="78.5" y1="40.5" x2="47.5" y2="45.5" id="Line-Copy-28" stroke-linecap="square"></line>
                        <line x1="107.5" y1="23.5" x2="78.5" y2="40.5" id="Line-Copy-29" stroke-linecap="square"></line>
                        <line x1="107.5" y1="23.5" x2="109.5" y2="44.5" id="Line-Copy-31" opacity="0.524181548" stroke-linecap="square"></line>
                        <line x1="0.5" y1="26.5" x2="12.2144448" y2="53.1758485" id="Line-Copy-32" opacity="0.56422061" stroke-linecap="square"></line>
                        <line x1="47.5" y1="45.5" x2="12.2144448" y2="53.1758485" id="Line-Copy-33" opacity="0.500209263" stroke-linecap="square"></line>
                        <line x1="153.5" y1="46.5" x2="107.5" y2="23.5" id="Line-Copy-30" stroke-linecap="square"></line>
                        <line x1="83.5" y1="56.5" x2="78.5" y2="40.5" id="Line-Copy-25" stroke-linecap="square"></line>
                        <line x1="72.5" y1="64.5" x2="78.5" y2="40.5" id="Line-Copy-26" stroke-linecap="square"></line>
                        <line x1="118.5" y1="88.5" x2="83.5" y2="57" id="Line-Copy-18" stroke-linecap="square"></line>
                        <line x1="118.5" y1="88.5" x2="130.5" y2="62.5" id="Line-Copy-19" stroke-linecap="square"></line>
                        <line x1="130.5" y1="62.5" x2="153.5" y2="46.5" id="Line-Copy-20" stroke-linecap="square"></line>
                        <line x1="109.5" y1="44.5" x2="153.5" y2="46.5" id="Line-Copy-21" opacity="0.638044085" stroke-linecap="square"></line>
                        <polyline id="Line-Copy-22" opacity="0.530343192" stroke-linecap="square" points="109.5 44.5 103.640137 62.5 118.5 88.5"></polyline>
                        <line x1="109.5" y1="44.5" x2="83.5" y2="57" id="Line-Copy-24" opacity="0.603399368" stroke-linecap="square"></line>
                        <polyline id="Line-Copy-61" opacity="0.603399368" stroke-linecap="square" points="129.731934 62.5 103.640137 62.5 84 57"></polyline>
                        <line x1="109.5" y1="44.5" x2="130.5" y2="62.5" id="Line-Copy-23" opacity="0.583077567" stroke-linecap="square"></line>
                        <polyline id="Line-Copy-17" stroke-linecap="square" points="47.5 45.5 36.3594555 14.592795 0.5 26.5"></polyline>
                        <polyline id="Line-Copy-7" opacity="0.563802083" stroke-linecap="square" points="24.842608 67.3336511 24.6621661 59.4500331 12.2144448 53.1758485"></polyline>
                        <line x1="24.842608" y1="67.3336511" x2="47.5" y2="45.5" id="Line-Copy-8" opacity="0.702915737" stroke-linecap="square"></line>
                        <polyline id="Line-Copy-9" stroke-linecap="square" points="57.5 65.5 45.4044233 56.9179556 47.5 45.5"></polyline>
                        <line x1="68.1967773" y1="78.6591717" x2="57.5" y2="65.5" id="Line-Copy-13" stroke-linecap="square"></line>
                        <line x1="24.842608" y1="67.3336511" x2="67.5" y2="78.5" id="Line-Copy-11" opacity="0.666457403" stroke-linecap="square"></line>
                        <path d="M24.842608,67.3336511 C46.6142027,66.111217 57.5,65.5 57.5,65.5 C57.5,65.5 64.5,57.1666667 78.5,40.5 L24.842608,67.3336511 Z" id="Line-Copy-60" opacity="0.666457403" stroke-linecap="square"></path>
                        <line x1="159.5" y1="73.5" x2="130.5" y2="62.5" id="Line-Copy-38" opacity="0.750069754" stroke-linecap="square"></line>
                        <line x1="169" y1="51.5" x2="159.5" y2="73.5" id="Line-Copy-40" opacity="0.669131324" stroke-linecap="square"></line>
                        <polyline id="Line-Copy-62" opacity="0.669131324" stroke-linecap="square" points="153.5 46.5 154.341797 59.5 159.5 73.5"></polyline>
                        <line x1="153.5" y1="46.5" x2="169" y2="51.5" id="Line-Copy-41" opacity="0.397042411" stroke-linecap="square"></line>
                        <path d="M130.5,62.5 C146.394531,60.5 154.341797,59.5 154.341797,59.5 C154.341797,59.5 159.227865,56.8333333 169,51.5" id="Line-Copy-42" opacity="0.601143973" stroke-linecap="square"></path>
                        <line x1="169" y1="51.5" x2="167.5" y2="38.5" id="Line-Copy-43" opacity="0.58530971" stroke-linecap="square"></line>
                        <line x1="153.5" y1="46.5" x2="167.5" y2="38.5" id="Line-Copy-46" opacity="0.397042411" stroke-linecap="square"></line>
                        <line x1="153.5" y1="46.5" x2="169.5" y2="29.5" id="Line-Copy-52" opacity="0.598423549" stroke-linecap="square"></line>
                        <line x1="169" y1="51.5" x2="179.5" y2="54.5" id="Line-Copy-39" opacity="0.6" stroke-linecap="square"></line>
                        <line x1="167.5" y1="38.5" x2="179.5" y2="54.5" id="Line-Copy-47" opacity="0.397042411" stroke-linecap="square"></line>
                        <line x1="169.5" y1="29.5" x2="167.5" y2="38.5" id="Line-Copy-49" opacity="0.397042411" stroke-linecap="square"></line>
                        <line x1="132.5" y1="21.5" x2="153.5" y2="46.5" id="Line-Copy-50" opacity="0.680501302" stroke-linecap="square"></line>
                        <line x1="107.5" y1="23.5" x2="132.5" y2="21.5" id="Line-Copy-53" opacity="0.6" stroke-linecap="square"></line>
                        <line x1="83.5" y1="57" x2="72.5" y2="64.5" id="Line-Copy-16" stroke-linecap="square"></line>
                        <polyline id="Path-2" opacity="0.63906715" points="28.9590914 33.3700415 36.3594555 14.592795 19.9924636 0.920514467 0.5 26.5"></polyline>
                        <line x1="24.6621661" y1="59.4500331" x2="47.5" y2="45.5" id="Path-3" opacity="0.56422061" stroke-linecap="square"></line>
                    </g>
                    <g id="Points" transform="translate(0.000000, -0.000000)" fill="#0494AF">
                        <circle id="Oval-Copy-19" cx="94.5" cy="112.5" r="1"></circle>
                        <circle id="Oval-Copy-44" cx="67.5165165" cy="104.985855" r="1"></circle>
                        <circle id="Oval-Copy-29" cx="131.5" cy="92.5" r="1"></circle>
                        <circle id="Oval-Copy-30" cx="152.5" cy="110.5" r="1"></circle>
                        <circle id="Oval-Copy-31" cx="176.5" cy="107.5" r="1"></circle>
                        <circle id="Oval-Copy-32" cx="175.15" cy="94.5" r="1"></circle>
                        <circle id="Oval-Copy-20" cx="105.5" cy="105" r="1"></circle>
                        <circle id="Oval-Copy-28" cx="125.7" cy="110.5" r="1"></circle>
                        <circle id="Oval-Copy-37" cx="58.4624252" cy="62.7521441" r="1"></circle>
                        <circle id="Oval-Copy-39" cx="51.0823053" cy="81.0568444" r="1"></circle>
                        <circle id="Oval-Copy-38" cx="24.8189014" cy="41.6067403" r="1"></circle>
                        <circle id="Oval-Copy-43" cx="24.8189014" cy="1.5456737" r="1"></circle>
                        <circle id="Oval-Copy-40" cx="29.736623" cy="54.1269861" r="1"></circle>
                        <circle id="Oval-Copy-46" cx="36.5986487" cy="22.7662185" r="1"></circle>
                        <circle id="Oval-Copy-41" cx="18.3383956" cy="13.3481811" r="1"></circle>
                        <circle id="Oval-Copy-26" cx="34.4059009" cy="101.109727" r="1"></circle>
                        <circle id="Oval-Copy-45" cx="46.5342219" cy="107.5" r="1"></circle>
                        <circle id="Oval-Copy-27" cx="79.5" cy="113.5" r="1"></circle>
                        <path d="M22.6070476,75.7429559 C23.2145608,75.7429559 23.7070476,75.2504691 23.7070476,74.6429559 C23.7070476,74.3267956 23.5736654,74.0417883 23.3601027,73.8411359 C23.1632973,73.6562277 22.8984004,73.5429559 22.6070476,73.5429559 C21.9995343,73.5429559 21.5070476,74.0354427 21.5070476,74.6429559 C21.5070476,75.2504691 21.9995343,75.7429559 22.6070476,75.7429559 Z" id="Oval-Copy-2"></path>
                        <path d="M49.9823053,17.1276186 C50.5898185,17.1276186 51.0823053,16.6351319 51.0823053,16.0276186 C51.0823053,15.7114583 50.9489231,15.426451 50.7353605,15.2257987 C50.538555,15.0408904 50.2736582,14.9276186 49.9823053,14.9276186 C49.3747921,14.9276186 48.8823053,15.4201054 48.8823053,16.0276186 C48.8823053,16.6351319 49.3747921,17.1276186 49.9823053,17.1276186 Z" id="Oval-Copy-34"></path>
                        <circle id="Oval-Copy-3" cx="69.5" cy="93.5" r="1"></circle>
                        <circle id="Oval-Copy-35" cx="42.5461492" cy="48.9126747" r="1"></circle>
                        <circle id="Oval-Copy-7" cx="100.5" cy="88.5" r="1"></circle>
                        <circle id="Oval-Copy-8" cx="130" cy="71.6388612" r="1"></circle>
                        <circle id="Oval-Copy-5" cx="140.431855" cy="136.360404" r="1"></circle>
                        <circle id="Oval-Copy-6" cx="90" cy="127" r="1"></circle>
                        <circle id="Oval-Copy-4" cx="46.7342219" cy="115.2" r="1.2"></circle>
                        <circle id="Oval" cx="181.5" cy="121.5" r="1"></circle>
                        <circle id="Oval-Copy-13" cx="201.6" cy="102.6" r="1"></circle>
                        <circle id="Oval-Copy-9" cx="191" cy="99.6340332" r="1"></circle>
                        <circle id="Oval-Copy-48" cx="215.988868" cy="90.8541594" r="1"></circle>
                        <circle id="Oval-Copy-12" cx="189.5" cy="86.5" r="1"></circle>
                        <circle id="Oval-Copy-14" cx="154.7" cy="69.7" r="1"></circle>
                        <circle id="Oval-Copy-15" cx="191.5" cy="77.5" r="1"></circle>
                    </g>
                </g>
                <g id="bottom-design-2" transform="translate(78.529800, 25.182196)" stroke="#0494AF">
                    <polygon id="Path-10" stroke-width="0.3" opacity="0.642926897" points="53.632998 190.585306 19.3541744 181.194294 31.8829647 189.60837"></polygon>
                    <line x1="31.8829647" y1="189.60837" x2="32.6846892" y2="210.356404" id="Path-11" stroke-width="0.2" opacity="0.629580543"></line>
                    <polyline id="Path-19" stroke-width="0.2" points="32.6846892 210.356404 54.4067333 190 62.3708349 179.836872 83.2069069 175.903684"></polyline>
                    <polygon id="Path-21" stroke-width="0.2" points="32.6846892 210.245816 19.1885557 210.245816 19 181.194294"></polygon>
                    <polyline id="Path-22" stroke-width="0.2" points="54.3886027 190.585306 51.6695599 171.812458 62.3708349 179.836872"></polyline>
                    <line x1="75.1567333" y1="147.822367" x2="100.813016" y2="152.420753" id="Path-23" stroke-width="0.2"></line>
                    <line x1="54.3886027" y1="190.585306" x2="83.6385557" y2="175.903684" id="Path-14" stroke-width="0.3" opacity="0.58530971" stroke-linecap="square"></line>
                    <polyline id="Path-24" stroke-width="0.3" opacity="0.58530971" stroke-linecap="square" points="1.6663522 28.0453909 0.983339502 0.181685778 18.6535898 7.2681496"></polyline>
                    <line x1="0.983339502" y1="0.181685778" x2="10.4605808" y2="25.4401005" id="Path-25" stroke-width="0.3" opacity="0.58530971" stroke-linecap="square"></line>
                    <polyline id="Path-26" stroke-width="0.3" opacity="0.58530971" stroke-linecap="square" points="76.5227587 125.70049 75.1567333 147.87226 83.6385557 175.903684"></polyline>
                </g>
            </g>
        </g>
    </g>
</svg>