<?xml version="1.0" encoding="UTF-8"?>
<svg width="317px" height="431px" viewBox="0 0 317 431" version="1.1" xmlns="http://www.w3.org/2000/svg" xmlns:xlink="http://www.w3.org/1999/xlink">
    <!-- Generator: Sketch 61 (89581) - https://sketch.com -->
    <title>chart-illustration</title>
    <desc>Created with Sketch.</desc>
    <g id="Page-1" stroke="none" stroke-width="1" fill="none" fill-rule="evenodd" fill-opacity="0.153190559">
        <g id="chart-illustration" transform="translate(1.000000, 1.000000)" fill="#063FFE" fill-rule="nonzero" stroke="#063FFE">
            <path d="M0,22 L0,0 L313,0 C314.10458,0 315,0.89543 315,2 L315,20 C315,21.10457 314.10458,22 313,22 L0,22 Z" id="Path"></path>
            <path d="M0,56 L0,34 L281,34 C282.10458,34 283,34.89543 283,36 L283,54 C283,55.10457 282.10458,56 281,56 L0,56 Z" id="Path"></path>
            <path d="M0,90 L0,68 L234,68 C235.10457,68 236,68.89543 236,70 L236,88 C236,89.10457 235.10457,90 234,90 L0,90 Z" id="Path"></path>
            <path d="M0,124 L0,102 L195,102 C196.10457,102 197,102.89543 197,104 L197,122 C197,123.10457 196.10457,124 195,124 L0,124 Z" id="Path"></path>
            <path d="M0,158 L0,136 L171,136 C172.10457,136 173,136.89543 173,138 L173,156 C173,157.10457 172.10457,158 171,158 L0,158 Z" id="Path"></path>
            <path d="M0,192 L0,170 L132,170 C133.10457,170 134,170.89543 134,172 L134,190 C134,191.10457 133.10457,192 132,192 L0,192 Z" id="Path"></path>
            <path d="M0,226 L0,204 L101,204 C102.10457,204 103,204.89543 103,206 L103,224 C103,225.10457 102.10457,226 101,226 L0,226 Z" id="Path"></path>
            <path d="M0,259 L0,237 L77,237 C78.10457,237 79,237.89542 79,239 L79,257 C79,258.10458 78.10457,259 77,259 L0,259 Z" id="Path"></path>
            <path d="M0,293 L0,271 L55,271 C56.10457,271 57,271.89542 57,273 L57,291 C57,292.10458 56.10457,293 55,293 L0,293 Z" id="Path"></path>
            <path d="M0,327 L0,305 L42,305 C43.10457,305 44,305.89542 44,307 L44,325 C44,326.10458 43.10457,327 42,327 L0,327 Z" id="Path"></path>
            <path d="M0,361 L0,339 L30,339 C31.10457,339 32,339.89542 32,341 L32,359 C32,360.10458 31.10457,361 30,361 L0,361 Z" id="Path"></path>
            <path d="M0,395 L0,373 L17,373 C18.10457,373 19,373.89542 19,375 L19,393 C19,394.10458 18.10457,395 17,395 L0,395 Z" id="Path"></path>
            <path d="M0,429 L0,407 L6,407 C7.10457,407 8,407.89542 8,409 L8,427 C8,428.10458 7.10457,429 6,429 L0,429 Z" id="Path"></path>
        </g>
    </g>
</svg>