<?xml version="1.0" encoding="UTF-8"?>
<svg width="316px" height="72px" viewBox="0 0 316 72" version="1.1" xmlns="http://www.w3.org/2000/svg" xmlns:xlink="http://www.w3.org/1999/xlink">
    <!-- Generator: Sketch 59.1 (86144) - https://sketch.com -->
    <title>Text and points</title>
    <desc>Created with Sketch.</desc>
    <g id="Page-2" stroke="none" stroke-width="1" fill="none" fill-rule="evenodd">
        <g id="Hyperobjekt-businesscard-v1-Copy-28" transform="translate(-12.000000, -62.000000)">
            <g id="Text-and-points" transform="translate(12.000000, 62.000000)">
                <g id="linesandpoints">
                    <g id="Lines" opacity="0.380975632" transform="translate(0.000000, 1.000000)" stroke="#B5FAFF" stroke-linecap="square" stroke-width="0.3">
                        <line x1="14.5" y1="44.5" x2="41.5" y2="36.5" id="Line-Copy-38" opacity="0.690173921"></line>
                        <line x1="88.5" y1="66.5" x2="69.5" y2="43.5" id="Line-Copy-48" opacity="0.647251674"></line>
                        <line x1="104.5" y1="58.5" x2="88.5" y2="66.5" id="Line-Copy-54" opacity="0.646693638"></line>
                        <line x1="117.5" y1="44.5" x2="104.5" y2="58.5" id="Line-Copy-57" opacity="0.633928571"></line>
                        <line x1="145.5" y1="67.5" x2="104.5" y2="58.5" id="Line-Copy-58" opacity="0.818731399"></line>
                        <line x1="104.5" y1="58.5" x2="92.5" y2="50.5" id="Line-Copy-55" opacity="0.654320126"></line>
                        <line x1="88.5" y1="66.5" x2="92" y2="50.5" id="Line-Copy-56" opacity="0.446475074"></line>
                        <line x1="93.5" y1="33.5" x2="90.5" y2="14.5" id="Line-Copy-2"></line>
                        <line x1="93.5" y1="33.5" x2="136.5" y2="7.5" id="Line-Copy-3"></line>
                        <line x1="117.5" y1="44.5" x2="143.5" y2="41.5" id="Line-Copy-12" opacity="0.588076637"></line>
                        <line x1="117.5" y1="44.5" x2="145.5" y2="67.5" id="Line-Copy-35" opacity="0.601981027"></line>
                        <line x1="208.5" y1="45.5" x2="204.5" y2="59.5" id="Line-Copy-15"></line>
                        <line x1="245.5" y1="25.5" x2="214.5" y2="21.5" id="Line-Copy-27" opacity="0.531133743"></line>
                        <line x1="214.5" y1="21.5" x2="183.5" y2="26.5" id="Line-Copy-28"></line>
                        <line x1="243.5" y1="4.5" x2="214.5" y2="21.5" id="Line-Copy-29"></line>
                        <line x1="243.5" y1="4.5" x2="245.5" y2="25.5" id="Line-Copy-31" opacity="0.524181548"></line>
                        <line x1="136.5" y1="7.5" x2="143.5" y2="41.5" id="Line-Copy-32" opacity="0.56422061"></line>
                        <line x1="183.5" y1="26.5" x2="143.5" y2="41.5" id="Line-Copy-33" opacity="0.500209263"></line>
                        <line x1="117.5" y1="44.5" x2="136.5" y2="7.5" id="Line-Copy-34" opacity="0.571265811"></line>
                        <line x1="289.5" y1="27.5" x2="243.5" y2="4.5" id="Line-Copy-30"></line>
                        <line x1="219.5" y1="37.5" x2="214.5" y2="21.5" id="Line-Copy-25"></line>
                        <line x1="208.5" y1="45.5" x2="214.5" y2="21.5" id="Line-Copy-26"></line>
                        <line x1="254.5" y1="69.5" x2="219.5" y2="38" id="Line-Copy-18"></line>
                        <line x1="254.5" y1="69.5" x2="266.5" y2="43.5" id="Line-Copy-19"></line>
                        <line x1="266.5" y1="43.5" x2="289.5" y2="27.5" id="Line-Copy-20"></line>
                        <line x1="245.5" y1="25.5" x2="289.5" y2="27.5" id="Line-Copy-21" opacity="0.638044085"></line>
                        <polyline id="Line-Copy-22" opacity="0.530343192" points="245.5 25.5 239.640137 43.5 254.5 69.5"></polyline>
                        <line x1="245.5" y1="25.5" x2="219.5" y2="38" id="Line-Copy-24" opacity="0.603399368"></line>
                        <polyline id="Line-Copy-61" opacity="0.603399368" points="265.731934 43.5 239.640137 43.5 220 38"></polyline>
                        <line x1="245.5" y1="25.5" x2="266.5" y2="43.5" id="Line-Copy-23" opacity="0.583077567"></line>
                        <line x1="183.5" y1="26.5" x2="136.5" y2="7.5" id="Line-Copy-17"></line>
                        <line x1="69.5" y1="43.5" x2="93.5" y2="33.5" id="Line-Copy-14" opacity="0.654203869"></line>
                        <line x1="145.5" y1="67.5" x2="143.5" y2="41.5" id="Line-Copy-7" opacity="0.563802083"></line>
                        <line x1="145.5" y1="67.5" x2="183.5" y2="26.5" id="Line-Copy-8" opacity="0.702915737"></line>
                        <line x1="193.5" y1="46.5" x2="183.5" y2="26.5" id="Line-Copy-9"></line>
                        <line x1="203" y1="59" x2="193.5" y2="46.5" id="Line-Copy-13"></line>
                        <line x1="175.5" y1="54.5" x2="203.5" y2="59.5" id="Line-Copy-11" opacity="0.666457403"></line>
                        <path d="M145.5,67.5 C177.5,53.5 193.5,46.5 193.5,46.5 C193.5,46.5 200.5,38.1666667 214.5,21.5" id="Line-Copy-60" opacity="0.666457403"></path>
                        <line x1="69.5" y1="43.5" x2="92" y2="50" id="Line-Copy-36"></line>
                        <line x1="92" y1="50" x2="117.5" y2="44.5" id="Line-Copy-59"></line>
                        <line x1="93.5" y1="33.5" x2="117.5" y2="44.5" id="Line-Copy-37"></line>
                        <line x1="295.5" y1="54.5" x2="266.5" y2="43.5" id="Line-Copy-38" opacity="0.750069754"></line>
                        <line x1="305" y1="32.5" x2="295.5" y2="54.5" id="Line-Copy-40" opacity="0.669131324"></line>
                        <polyline id="Line-Copy-62" opacity="0.669131324" points="289.5 27.5 290.341797 40.5 295.5 54.5"></polyline>
                        <line x1="289.5" y1="27.5" x2="305" y2="32.5" id="Line-Copy-41" opacity="0.397042411"></line>
                        <path d="M266.5,43.5 C282.394531,41.5 290.341797,40.5 290.341797,40.5 C290.341797,40.5 295.227865,37.8333333 305,32.5" id="Line-Copy-42" opacity="0.601143973"></path>
                        <line x1="305" y1="32.5" x2="303.5" y2="19.5" id="Line-Copy-43" opacity="0.58530971"></line>
                        <line x1="289.5" y1="27.5" x2="303.5" y2="19.5" id="Line-Copy-46" opacity="0.397042411"></line>
                        <line x1="268.5" y1="2.5" x2="305.5" y2="10.5" id="Line-Copy-51" opacity="0.610770089"></line>
                        <line x1="289.5" y1="27.5" x2="305.5" y2="10.5" id="Line-Copy-52" opacity="0.598423549"></line>
                        <line x1="305" y1="32.5" x2="315.5" y2="35.5" id="Line-Copy-39" opacity="0.6"></line>
                        <line x1="303.5" y1="19.5" x2="315.5" y2="35.5" id="Line-Copy-47" opacity="0.397042411"></line>
                        <line x1="305.5" y1="10.5" x2="303.5" y2="19.5" id="Line-Copy-49" opacity="0.397042411"></line>
                        <line x1="268.5" y1="2.5" x2="289.5" y2="27.5" id="Line-Copy-50" opacity="0.680501302"></line>
                        <line x1="243.5" y1="4.5" x2="268.5" y2="2.5" id="Line-Copy-53" opacity="0.6"></line>
                        <line x1="90.5" y1="14.5" x2="63.5" y2="0.5" id="Line-Copy"></line>
                        <line x1="69.5" y1="43.5" x2="90.5" y2="14.5" id="Line-Copy-4"></line>
                        <line x1="69.5" y1="43.5" x2="63.5" y2="0.5" id="Line-Copy-5" opacity="0.632765997"></line>
                        <line x1="69.5" y1="43.5" x2="41.5" y2="36.5" id="Line-Copy-6"></line>
                        <line x1="41.5" y1="36.5" x2="63.5" y2="0.5" id="Line" opacity="0.620117188"></line>
                        <line x1="22.5" y1="11.5" x2="63.5" y2="0.5" id="Line-Copy-45" opacity="0.760277158"></line>
                        <line x1="22.5" y1="11.5" x2="41.5" y2="36.5" id="Line-Copy-44" opacity="0.444614955"></line>
                        <line x1="0.5" y1="16.5" x2="41.5" y2="36.5" id="Line-Copy-39" opacity="0.444614955"></line>
                        <line x1="0.5" y1="16.5" x2="22.5" y2="11.5" id="Line-Copy-43" opacity="0.623139881"></line>
                        <line x1="0.5" y1="16.5" x2="14.5" y2="44.5" id="Line-Copy-40" opacity="0.724469866"></line>
                        <line x1="219.5" y1="38" x2="208.5" y2="45.5" id="Line-Copy-16"></line>
                    </g>
                    <g id="Points" fill="#209FB6">
                        <circle id="Oval" cx="14.5" cy="45.5" r="1"></circle>
                        <circle id="Oval-Copy-18" cx="175.5" cy="55.5" r="1"></circle>
                        <circle id="Oval-Copy-19" cx="208.5" cy="46.5" r="1"></circle>
                        <circle id="Oval-Copy-29" cx="245.5" cy="26.5" r="1"></circle>
                        <circle id="Oval-Copy-30" cx="266.5" cy="44.5" r="1"></circle>
                        <circle id="Oval-Copy-31" cx="290.5" cy="41.5" r="1"></circle>
                        <circle id="Oval-Copy-32" cx="289.5" cy="28.5" r="1"></circle>
                        <circle id="Oval-Copy-20" cx="219.5" cy="39" r="1"></circle>
                        <circle id="Oval-Copy-28" cx="239.7" cy="44.5" r="1"></circle>
                        <circle id="Oval-Copy-16" cx="88.5" cy="67.5" r="1"></circle>
                        <circle id="Oval-Copy-25" cx="117.5" cy="45.5" r="1"></circle>
                        <circle id="Oval-Copy-26" cx="143.5" cy="42.5" r="1"></circle>
                        <circle id="Oval-Copy-27" cx="193.5" cy="47.5" r="1"></circle>
                        <circle id="Oval-Copy-17" cx="104.5" cy="59.5" r="1"></circle>
                        <circle id="Oval-Copy-9" cx="0.5" cy="17.5" r="1"></circle>
                        <circle id="Oval-Copy-11" cx="22.5" cy="12.5" r="1"></circle>
                        <circle id="Oval-Copy" cx="90.5" cy="15.5" r="1"></circle>
                        <circle id="Oval-Copy-21" cx="69.5" cy="44.5" r="1"></circle>
                        <circle id="Oval-Copy-22" cx="41.5" cy="37.5" r="1"></circle>
                        <circle id="Oval-Copy-23" cx="93.5" cy="34.5" r="1"></circle>
                        <circle id="Oval-Copy-24" cx="92" cy="51" r="1"></circle>
                        <circle id="Oval-Copy-10" cx="63.5" cy="1.5" r="1.5"></circle>
                        <circle id="Oval-Copy-2" cx="136.5" cy="8.5" r="1.5"></circle>
                        <circle id="Oval-Copy-3" cx="183.5" cy="27.5" r="1"></circle>
                        <circle id="Oval-Copy-7" cx="214.5" cy="22.5" r="1"></circle>
                        <circle id="Oval-Copy-8" cx="243.5" cy="5.5" r="1.5"></circle>
                        <circle id="Oval-Copy-5" cx="254.5" cy="70.5" r="1.5"></circle>
                        <circle id="Oval-Copy-6" cx="204" cy="61" r="1"></circle>
                        <circle id="Oval-Copy-4" cx="145.5" cy="68.5" r="1.5"></circle>
                        <circle id="Oval" cx="295.5" cy="55.5" r="1"></circle>
                        <circle id="Oval-Copy-13" cx="315.5" cy="36.5" r="1"></circle>
                        <circle id="Oval-Copy-9" cx="305" cy="33.5" r="1"></circle>
                        <circle id="Oval-Copy-12" cx="303.5" cy="20.5" r="1"></circle>
                        <circle id="Oval-Copy-14" cx="268.5" cy="3.5" r="1"></circle>
                        <circle id="Oval-Copy-15" cx="305.5" cy="11.5" r="1"></circle>
                    </g>
                </g>
                <path d="M41.088,48 L42.24,48 L42.24,44.528 C42.24,44.048 42.272,43.264 42.72,42.736 C43.056,42.336 43.488,42.224 43.888,42.224 C44.4,42.224 44.752,42.416 44.976,42.704 C45.248,43.056 45.28,43.52 45.28,43.92 L45.28,48 L46.432,48 L46.432,43.888 C46.432,43.152 46.384,42.608 46.048,42.112 C45.648,41.52 44.928,41.2 44.144,41.2 C43.04,41.2 42.448,41.856 42.24,42.128 L42.24,36.336 L41.088,36.336 L41.088,48 Z M66.238331,51.68 L67.518331,51.68 L72.398331,41.36 L71.118331,41.36 L68.958331,46.112 L66.606331,41.36 L65.294331,41.36 L68.350331,47.376 L66.238331,51.68 Z M92.412662,47.072 C92.908662,47.712 93.660662,48.192 94.732662,48.192 C96.748662,48.192 97.916662,46.544 97.916662,44.72 C97.916662,42.928 96.764662,41.2 94.684662,41.2 L94.4945509,41.205875 C93.9705859,41.2383114 93.1044267,41.4268235 92.412662,42.288 L92.412662,41.36 L91.260662,41.36 L91.260662,51.68 L92.412662,51.68 L92.412662,47.072 Z M94.572662,47.168 C93.212662,47.168 92.348662,46.064 92.348662,44.704 C92.348662,43.104 93.484662,42.224 94.556662,42.224 C95.628662,42.224 96.732662,43.088 96.732662,44.72 C96.732662,46.048 95.916662,47.168 94.572662,47.168 Z M122.250993,45.776 C122.106993,46.096 121.866993,46.432 121.562993,46.688 C121.178993,47.008 120.746993,47.168 120.202993,47.168 C119.050993,47.168 118.106993,46.288 118.090993,44.912 L123.258993,44.912 C123.290993,44.032 123.050993,43.008 122.634993,42.416 C122.234993,41.84 121.418993,41.2 120.122993,41.2 C118.122993,41.2 116.906993,42.736 116.906993,44.72 C116.906993,47.184 118.586993,48.192 120.186993,48.192 C121.034993,48.192 121.786993,47.92 122.394993,47.376 C122.730993,47.072 123.018993,46.672 123.210993,46.304 L122.250993,45.776 Z M118.170993,43.952 C118.346993,42.96 119.146993,42.224 120.122993,42.224 C121.098993,42.224 121.882993,42.912 122.074993,43.952 L118.170993,43.952 Z M142.665324,48 L143.817324,48 L143.817324,44.496 C143.817324,43.408 144.009324,42.96 144.201324,42.704 C144.377324,42.48 144.665324,42.288 145.129324,42.288 C145.305324,42.288 145.545324,42.336 145.801324,42.512 L146.345324,41.472 C146.057324,41.328 145.673324,41.2 145.321324,41.2 C144.425324,41.2 143.929324,41.904 143.817324,42.08 L143.817324,41.36 L142.665324,41.36 L142.665324,48 Z M173.493229,39.5885751 L172.82094,38.9616558 L171.830861,40.036864 C170.803703,39.3052657 169.744993,39.1601257 168.965468,39.1873473 C166.483981,39.2740028 164.523455,41.2416227 164.61374,43.8270468 C164.642323,44.6455479 164.886492,45.6776552 165.673606,46.612755 L164.670081,47.6754249 L165.34237,48.3023442 L166.345894,47.2396744 C166.907441,47.6753421 167.849388,48.2017893 169.278517,48.151883 C171.772996,48.0647739 173.720076,46.0846155 173.630244,43.5121835 C173.575801,41.9531338 172.855009,41.0547419 172.50315,40.6637834 L173.493229,39.5885751 Z M166.427184,45.912614 C166.142101,45.5713553 165.662425,44.8726702 165.623861,43.7683433 C165.554446,41.7805549 167.071137,40.1406242 169.019949,40.0725702 C170.098292,40.0349136 170.829189,40.4776754 171.122728,40.6885595 L166.427184,45.912614 Z M171.760772,41.3518635 C172.397714,42.0840806 172.596102,42.9226678 172.618786,43.5722719 C172.688201,45.5600602 171.158518,47.2004447 169.222698,47.268045 C168.728999,47.2852853 167.867438,47.1983004 167.040152,46.6028095 L171.760772,41.3518635 Z M194.040549,47.072 C194.536549,47.712 195.288549,48.192 196.360549,48.192 C198.376549,48.192 199.544549,46.544 199.544549,44.72 C199.544549,42.928 198.392549,41.2 196.312549,41.2 L196.122438,41.205875 C195.598473,41.2383114 194.732314,41.4268235 194.040549,42.288 L194.040549,36.336 L192.888549,36.336 L192.888549,48 L194.040549,48 L194.040549,47.072 Z M196.200549,47.168 C194.840549,47.168 193.976549,46.064 193.976549,44.704 C193.976549,43.104 195.112549,42.224 196.184549,42.224 C197.256549,42.224 198.360549,43.088 198.360549,44.72 C198.360549,46.048 197.544549,47.168 196.200549,47.168 Z M218.95088,41.36 L218.95088,51.68 L220.10288,51.68 L220.10288,41.36 L218.95088,41.36 Z M218.71088,38.848 C218.71088,39.296 219.07888,39.664 219.52688,39.664 C219.97488,39.664 220.34288,39.296 220.34288,38.848 C220.34288,38.4 219.97488,38.032 219.52688,38.032 C219.07888,38.032 218.71088,38.4 218.71088,38.848 Z M244.853211,45.776 C244.709211,46.096 244.469211,46.432 244.165211,46.688 C243.781211,47.008 243.349211,47.168 242.805211,47.168 C241.653211,47.168 240.709211,46.288 240.693211,44.912 L245.861211,44.912 C245.893211,44.032 245.653211,43.008 245.237211,42.416 C244.837211,41.84 244.021211,41.2 242.725211,41.2 C240.725211,41.2 239.509211,42.736 239.509211,44.72 C239.509211,47.184 241.189211,48.192 242.789211,48.192 C243.637211,48.192 244.389211,47.92 244.997211,47.376 C245.333211,47.072 245.621211,46.672 245.813211,46.304 L244.853211,45.776 Z M240.773211,43.952 C240.949211,42.96 241.749211,42.224 242.725211,42.224 C243.701211,42.224 244.485211,42.912 244.677211,43.952 L240.773211,43.952 Z M265.267542,36.336 L265.267542,48 L266.419542,48 L266.419542,45.264 L266.707542,44.976 L269.363542,48 L270.867542,48 L267.507542,44.208 L270.355542,41.36 L268.851542,41.36 L266.419542,43.824 L266.419542,36.336 L265.267542,36.336 Z M292.001873,42.416 L290.849873,42.416 L290.849873,48 L289.697873,48 L289.697873,42.416 L288.993873,42.416 L288.993873,41.36 L289.697873,41.36 L289.697873,38.96 L290.849873,38.96 L290.849873,41.36 L292.001873,41.36 L292.001873,42.416 Z" id="hyperØbjekt" fill="#FFFFFF" fill-rule="nonzero"></path>
            </g>
        </g>
    </g>
</svg>