<?xml version="1.0" encoding="UTF-8"?>
<svg width="183px" height="16px" viewBox="0 0 183 16" version="1.1" xmlns="http://www.w3.org/2000/svg" xmlns:xlink="http://www.w3.org/1999/xlink">
    <!-- Generator: Sketch 59.1 (86144) - https://sketch.com -->
    <title>hyperØbjekt</title>
    <desc>Created with Sketch.</desc>
    <g id="Page-2" stroke="none" stroke-width="1" fill="none" fill-rule="evenodd">
        <g id="Hyperobjekt-businesscard-v1-Copy-29" transform="translate(-81.000000, -97.000000)" fill="#FFFFFF" fill-rule="nonzero">
            <g id="h0screenv4" transform="translate(53.083748, 67.000000)">
                <path d="M28.0042521,42 L29.1562521,42 L29.1562521,38.528 C29.1562521,38.048 29.1882521,37.264 29.6362521,36.736 C29.9722521,36.336 30.4042521,36.224 30.8042521,36.224 C31.3162521,36.224 31.6682521,36.416 31.8922521,36.704 C32.1642521,37.056 32.1962521,37.52 32.1962521,37.92 L32.1962521,42 L33.3482521,42 L33.3482521,37.888 C33.3482521,37.152 33.3002521,36.608 32.9642521,36.112 C32.5642521,35.52 31.8442521,35.2 31.0602521,35.2 C29.9562521,35.2 29.3642521,35.856 29.1562521,36.128 L29.1562521,30.336 L28.0042521,30.336 L28.0042521,42 Z M46.3082521,45.68 L47.5882521,45.68 L52.4682521,35.36 L51.1882521,35.36 L49.0282521,40.112 L46.6762521,35.36 L45.3642521,35.36 L48.4202521,41.376 L46.3082521,45.68 Z M65.6362521,41.072 C66.1322521,41.712 66.8842521,42.192 67.9562521,42.192 C69.9722521,42.192 71.1402521,40.544 71.1402521,38.72 C71.1402521,36.928 69.9882521,35.2 67.9082521,35.2 L67.7181409,35.205875 C67.1941759,35.2383114 66.3280168,35.4268235 65.6362521,36.288 L65.6362521,35.36 L64.4842521,35.36 L64.4842521,45.68 L65.6362521,45.68 L65.6362521,41.072 Z M67.7962521,41.168 C66.4362521,41.168 65.5722521,40.064 65.5722521,38.704 C65.5722521,37.104 66.7082521,36.224 67.7802521,36.224 C68.8522521,36.224 69.9562521,37.088 69.9562521,38.72 C69.9562521,40.048 69.1402521,41.168 67.7962521,41.168 Z M88.6282521,39.776 C88.4842521,40.096 88.2442521,40.432 87.9402521,40.688 C87.5562521,41.008 87.1242521,41.168 86.5802521,41.168 C85.4282521,41.168 84.4842521,40.288 84.4682521,38.912 L89.6362521,38.912 C89.6682521,38.032 89.4282521,37.008 89.0122521,36.416 C88.6122521,35.84 87.7962521,35.2 86.5002521,35.2 C84.5002521,35.2 83.2842521,36.736 83.2842521,38.72 C83.2842521,41.184 84.9642521,42.192 86.5642521,42.192 C87.4122521,42.192 88.1642521,41.92 88.7722521,41.376 C89.1082521,41.072 89.3962521,40.672 89.5882521,40.304 L88.6282521,39.776 Z M84.5482521,37.952 C84.7242521,36.96 85.5242521,36.224 86.5002521,36.224 C87.4762521,36.224 88.2602521,36.912 88.4522521,37.952 L84.5482521,37.952 Z M102.196252,42 L103.348252,42 L103.348252,38.496 C103.348252,37.408 103.540252,36.96 103.732252,36.704 C103.908252,36.48 104.196252,36.288 104.660252,36.288 C104.836252,36.288 105.076252,36.336 105.332252,36.512 L105.876252,35.472 C105.588252,35.328 105.204252,35.2 104.852252,35.2 C103.956252,35.2 103.460252,35.904 103.348252,36.08 L103.348252,35.36 L102.196252,35.36 L102.196252,42 Z M126.316252,33.745 L125.666252,33.095 L124.639252,34.135 C123.638252,33.368 122.585252,33.186 121.805252,33.186 C119.322252,33.186 117.294252,35.084 117.294252,37.671 C117.294252,38.49 117.502252,39.53 118.256252,40.492 L117.216252,41.519 L117.866252,42.169 L118.906252,41.142 C119.452252,41.597 120.375252,42.156 121.805252,42.156 C124.301252,42.156 126.316252,40.245 126.316252,37.671 C126.316252,36.111 125.627252,35.188 125.289252,34.785 L126.316252,33.745 Z M119.010252,39.842 C118.737252,39.491 118.282252,38.776 118.282252,37.671 C118.282252,35.682 119.855252,34.096 121.805252,34.096 C122.884252,34.096 123.599252,34.564 123.885252,34.785 L119.010252,39.842 Z M124.548252,35.422 C125.159252,36.176 125.328252,37.021 125.328252,37.671 C125.328252,39.66 123.742252,41.246 121.805252,41.246 C121.311252,41.246 120.453252,41.129 119.647252,40.505 L124.548252,35.422 Z M140.006252,41.072 C140.502252,41.712 141.254252,42.192 142.326252,42.192 C144.342252,42.192 145.510252,40.544 145.510252,38.72 C145.510252,36.928 144.358252,35.2 142.278252,35.2 L142.088141,35.205875 C141.564176,35.2383114 140.698017,35.4268235 140.006252,36.288 L140.006252,30.336 L138.854252,30.336 L138.854252,42 L140.006252,42 L140.006252,41.072 Z M142.166252,41.168 C140.806252,41.168 139.942252,40.064 139.942252,38.704 C139.942252,37.104 141.078252,36.224 142.150252,36.224 C143.222252,36.224 144.326252,37.088 144.326252,38.72 C144.326252,40.048 143.510252,41.168 142.166252,41.168 Z M158.070252,35.36 L158.070252,45.68 L159.222252,45.68 L159.222252,35.36 L158.070252,35.36 Z M157.830252,32.848 C157.830252,33.296 158.198252,33.664 158.646252,33.664 C159.094252,33.664 159.462252,33.296 159.462252,32.848 C159.462252,32.4 159.094252,32.032 158.646252,32.032 C158.198252,32.032 157.830252,32.4 157.830252,32.848 Z M177.126252,39.776 C176.982252,40.096 176.742252,40.432 176.438252,40.688 C176.054252,41.008 175.622252,41.168 175.078252,41.168 C173.926252,41.168 172.982252,40.288 172.966252,38.912 L178.134252,38.912 C178.166252,38.032 177.926252,37.008 177.510252,36.416 C177.110252,35.84 176.294252,35.2 174.998252,35.2 C172.998252,35.2 171.782252,36.736 171.782252,38.72 C171.782252,41.184 173.462252,42.192 175.062252,42.192 C175.910252,42.192 176.662252,41.92 177.270252,41.376 C177.606252,41.072 177.894252,40.672 178.086252,40.304 L177.126252,39.776 Z M173.046252,37.952 C173.222252,36.96 174.022252,36.224 174.998252,36.224 C175.974252,36.224 176.758252,36.912 176.950252,37.952 L173.046252,37.952 Z M190.694252,30.336 L190.694252,42 L191.846252,42 L191.846252,39.264 L192.134252,38.976 L194.790252,42 L196.294252,42 L192.934252,38.208 L195.782252,35.36 L194.278252,35.36 L191.846252,37.824 L191.846252,30.336 L190.694252,30.336 Z M210.582252,36.416 L209.430252,36.416 L209.430252,42 L208.278252,42 L208.278252,36.416 L207.574252,36.416 L207.574252,35.36 L208.278252,35.36 L208.278252,32.96 L209.430252,32.96 L209.430252,35.36 L210.582252,35.36 L210.582252,36.416 Z" id="hyperØbjekt"></path>
            </g>
        </g>
    </g>
</svg>