<?xml version="1.0" encoding="UTF-8"?>
<svg width="182px" height="464px" viewBox="0 0 182 464" version="1.1" xmlns="http://www.w3.org/2000/svg" xmlns:xlink="http://www.w3.org/1999/xlink">
    <!-- Generator: Sketch 61 (89581) - https://sketch.com -->
    <title>line-chart</title>
    <desc>Created with Sketch.</desc>
    <g id="Page-1" stroke="none" stroke-width="1" fill="none" fill-rule="evenodd">
        <g id="line-chart" transform="translate(0.000000, 0.000000)" stroke="#E23E00">
            <path d="M181,0 C180.72514,1.84086266 180.313356,3.32881839 179.764648,4.46386719 C178.638759,6.79286604 175.939453,47.1309833 175.939453,51.5644531 C175.939453,94.6640625 156.263672,89.1445313 156.191406,157.421875 C156.158986,188.052467 156.263672,158.777344 156.191406,212.621094 C156.11681,268.201258 99.390625,275.265625 99.390625,334.085938 C99.390625,387.527688 148.386047,410.326483 156.191406,412.324219 C169.22526,415.660156 177.494792,432.886207 181,464.00237 L181,0 Z" id="Path-2" fill-opacity="0.0818673514" fill="#E23E00" opacity="0.283947173"></path>
            <line x1="181.5" y1="66.5" x2="0.5" y2="66.5" id="Line" opacity="0.354631696" stroke-linecap="square" stroke-dasharray="9"></line>
            <line x1="181.5" y1="242.5" x2="0.5" y2="242.5" id="Line-Copy" opacity="0.354631696" stroke-linecap="square" stroke-dasharray="9"></line>
            <line x1="181.5" y1="406.5" x2="0.5" y2="406.5" id="Line-Copy-2" opacity="0.354631696" stroke-linecap="square" stroke-dasharray="9"></line>
        </g>
    </g>
</svg>