<?xml version="1.0" encoding="UTF-8"?>
<svg width="174px" height="259px" viewBox="0 0 174 259" version="1.1" xmlns="http://www.w3.org/2000/svg" xmlns:xlink="http://www.w3.org/1999/xlink">
    <!-- Generator: Sketch 61.2 (89653) - https://sketch.com -->
    <title>redcard</title>
    <desc>Created with Sketch.</desc>
    <g id="Page-1" stroke="none" stroke-width="1" fill="none" fill-rule="evenodd">
        <g id="Artboard-Copy-2" transform="translate(-16.000000, -197.000000)">
            <g id="redcard" transform="translate(15.395765, 197.500774)">
                <rect id="Red-rectangle" fill="#D7420A" x="0.828740231" y="0" width="173.678827" height="258.499226"></rect>
                <g id="middle-design-2" transform="translate(98.000000, 122.344039) rotate(105.000000) translate(-98.000000, -122.344039) translate(-11.000000, 72.344039)">
                    <g id="Lines-Copy" transform="translate(1.000000, 1.000000)" stroke="#FFFFFF" stroke-linecap="square" stroke-width="0.3">
                        <line x1="14.5" y1="74.5" x2="41.5" y2="66.5" id="Line-Copy-38" opacity="0.690173921"></line>
                        <line x1="88.5" y1="96.5" x2="69.5" y2="73.5" id="Line-Copy-48" opacity="0.647251674"></line>
                        <line x1="104.5" y1="88.5" x2="88.5" y2="96.5" id="Line-Copy-54" opacity="0.831938244"></line>
                        <line x1="117.5" y1="74.5" x2="104.5" y2="88.5" id="Line-Copy-57" opacity="0.633928571"></line>
                        <line x1="145.5" y1="97.5" x2="104.5" y2="88.5" id="Line-Copy-58" opacity="0.818731399"></line>
                        <line x1="104.5" y1="88.5" x2="92.5" y2="80.5" id="Line-Copy-55" opacity="0.848470052"></line>
                        <line x1="88.5" y1="96.5" x2="92" y2="80.5" id="Line-Copy-56" opacity="0.81656901"></line>
                        <line x1="93.5" y1="63.5" x2="90.5" y2="44.5" id="Line-Copy-2"></line>
                        <line x1="93.5" y1="63.5" x2="136.5" y2="37.5" id="Line-Copy-3"></line>
                        <line x1="117.5" y1="74.5" x2="143.5" y2="71.5" id="Line-Copy-12" opacity="0.841750372"></line>
                        <line x1="117.5" y1="74.5" x2="145.5" y2="97.5" id="Line-Copy-35" opacity="0.601981027"></line>
                        <line x1="136.5" y1="37.5" x2="143.5" y2="71.5" id="Line-Copy-32" opacity="0.797084263"></line>
                        <line x1="183.5" y1="56.5" x2="143.5" y2="71.5" id="Line-Copy-33" opacity="0.845703125"></line>
                        <line x1="117.5" y1="74.5" x2="136.5" y2="37.5" id="Line-Copy-34" opacity="0.844424293"></line>
                        <line x1="183.5" y1="56.5" x2="136.5" y2="37.5" id="Line-Copy-17"></line>
                        <line x1="69.5" y1="73.5" x2="93.5" y2="63.5" id="Line-Copy-14" opacity="0.798246838"></line>
                        <line x1="145.5" y1="97.5" x2="143.5" y2="71.5" id="Line-Copy-7" opacity="0.85000465"></line>
                        <path d="M181.073462,54.4956918 C199.16052,43.0269588 208.204049,37.2925922 208.204049,37.2925922 C208.204049,37.2925922 209.91934,25.4355073 213.349922,1.72133755" id="Line-Copy-60" opacity="0.903971354" transform="translate(197.211692, 28.108515) rotate(-6.000000) translate(-197.211692, -28.108515) "></path>
                        <line x1="209.103829" y1="36.0932667" x2="188.588259" y2="30.4043582" id="Line-4" opacity="0.855282738"></line>
                        <line x1="69.5" y1="73.5" x2="92" y2="80" id="Line-Copy-36"></line>
                        <line x1="92" y1="80" x2="117.5" y2="74.5" id="Line-Copy-59"></line>
                        <line x1="93.5" y1="63.5" x2="117.5" y2="74.5" id="Line-Copy-37"></line>
                        <line x1="90.5" y1="44.5" x2="63.5" y2="30.5" id="Line-Copy"></line>
                        <line x1="69.5" y1="73.5" x2="90.5" y2="44.5" id="Line-Copy-4"></line>
                        <line x1="69.5" y1="73.5" x2="63.5" y2="30.5" id="Line-Copy-5" opacity="0.780877976"></line>
                        <line x1="69.5" y1="73.5" x2="41.5" y2="66.5" id="Line-Copy-6"></line>
                        <line x1="41.5" y1="66.5" x2="63.5" y2="30.5" id="Line" opacity="0.813034784"></line>
                        <line x1="22.5" y1="41.5" x2="63.5" y2="30.5" id="Line-Copy-45" opacity="0.892647879"></line>
                        <line x1="22.5" y1="41.5" x2="41.5" y2="66.5" id="Line-Copy-44" opacity="0.712053571"></line>
                        <line x1="0.5" y1="46.5" x2="41.5" y2="66.5" id="Line-Copy-39" opacity="0.841796875"></line>
                        <line x1="0.5" y1="46.5" x2="22.5" y2="41.5" id="Line-Copy-43" opacity="0.900971912"></line>
                        <line x1="0.5" y1="46.5" x2="14.5" y2="74.5" id="Line-Copy-40" opacity="0.724469866"></line>
                        <line x1="145.5" y1="97.5" x2="183.5" y2="56.5" id="Path-6" opacity="0.846121652"></line>
                        <line x1="188.535081" y1="29.9181126" x2="210.503304" y2="0.178984858" id="Path"></line>
                    </g>
                    <g id="Points" transform="translate(-0.000000, 0.000000)" fill="#FFFFFF">
                        <circle id="Oval-Copy-18" cx="189.403129" cy="31.2377528" r="1"></circle>
                        <circle id="Oval-Copy-19" cx="209.98078" cy="37" r="1"></circle>
                        <circle id="Oval-Copy-20" cx="195.359563" cy="37.2473576" r="1"></circle>
                        <circle id="Oval-Copy-16" cx="89.5" cy="97.5" r="1"></circle>
                        <circle id="Oval-Copy-27" cx="15.2700053" cy="75.1997215" r="1"></circle>
                        <circle id="Oval-Copy-28" cx="1.44896809" cy="47.4839796" r="1"></circle>
                        <circle id="Oval-Copy-25" cx="118.5" cy="75.5" r="1"></circle>
                        <circle id="Oval-Copy-26" cx="144.5" cy="72.5" r="1"></circle>
                        <circle id="Oval-Copy-17" cx="105.5" cy="89.5" r="1"></circle>
                        <circle id="Oval-Copy-11" cx="23.5" cy="42.5" r="1"></circle>
                        <circle id="Oval-Copy" cx="91.5" cy="45.5" r="1"></circle>
                        <circle id="Oval-Copy-21" cx="70.5" cy="74.5" r="1"></circle>
                        <circle id="Oval-Copy-22" cx="42.5" cy="67.5" r="1"></circle>
                        <circle id="Oval-Copy-23" cx="94.5" cy="64.5" r="1"></circle>
                        <circle id="Oval-Copy-24" cx="93" cy="81" r="1"></circle>
                        <circle id="Oval-Copy-10" cx="64.5" cy="31.5" r="1.5"></circle>
                        <circle id="Oval-Copy-2" cx="137.5" cy="38.5" r="1.5"></circle>
                        <circle id="Oval-Copy-3" cx="184.5" cy="57.5" r="1"></circle>
                        <circle id="Oval-Copy-7" cx="211.48078" cy="1.33179376" r="1"></circle>
                        <circle id="Oval-Copy-4" cx="146.5" cy="98.5" r="1.5"></circle>
                    </g>
                </g>
                <g id="middle-design" transform="translate(84.421287, 153.067601)" stroke="#FFFFFF" stroke-linecap="square">
                    <line x1="17.3334668" y1="0.431625318" x2="-1.77635684e-14" y2="70.18103" id="Path-4" stroke-width="0.3"></line>
                    <line x1="10.6829479" y1="51.9316253" x2="3.32566507" y2="56.2368011" id="Path-7" stroke-width="0.2" opacity="0.84858631"></line>
                </g>
            </g>
        </g>
    </g>
</svg>