<svg xmlns="http://www.w3.org/2000/svg" xmlns:xlink="http://www.w3.org/1999/xlink" width="30px" height="30px" viewBox="0 0 30 30" version="1.1">
    <!-- Generator: Sketch 53.2 (72643) - https://sketchapp.com -->
    <title>Logo-ext</title>
    <desc>Created with Sketch.</desc>
    <g id="Page-1" stroke="none" stroke-width="1" fill="none" fill-rule="evenodd">
        <g id="Homepage-Mockup-1440-V1" transform="translate(-148.000000, -16.000000)">
            <g id="Logo-ext" transform="translate(148.255301, 13.869565)">
                
                <g id="Scatter" transform="translate(0.744699, 4.130435)"/>
                <path d="M-11,16.654076 L12.8576193,16.6662897" id="Line-Copy" stroke="#FFFFFF" stroke-width="1.5552" stroke-linecap="round" stroke-linejoin="round" transform="translate(0.928810, 16.660183) rotate(-90.000000) translate(-0.928810, -16.660183) "/>
                <path d="M0.924902901,28.3906688 L23.6483422,28.8411024" id="Line-Copy-2" stroke="#FFFFFF" stroke-width="1.5552" stroke-linecap="round" stroke-linejoin="round" transform="translate(12.286623, 28.615886) rotate(-361.000000) translate(-12.286623, -28.615886) "/>
                <path d="M10.5901274,18.5534652 C10.6628655,19.4220949 10.0388333,20.1886596 9.19631253,20.2656353 C8.35379176,20.3426111 7.61182786,19.7008487 7.53908979,18.832219 C7.46635171,17.9635892 8.09038388,17.1970246 8.93290465,17.1200488 C9.77542543,17.0430731 10.5173893,17.6848355 10.5901274,18.5534652 Z M7.8918886,24.080177 C7.91243103,24.3199883 7.74272199,24.5310412 7.51283284,24.5515769 C7.28294369,24.5721126 7.07992878,24.3943547 7.05938635,24.1545435 C7.03884391,23.9147323 7.20855296,23.7036794 7.4384421,23.6831436 C7.66833125,23.6626079 7.87134616,23.8403658 7.8918886,24.080177 Z M3.78541327,22.24081 C3.8059557,22.4806212 3.63624666,22.6916741 3.40635751,22.7122098 C3.17646836,22.7327456 2.97345345,22.5549876 2.95291102,22.3151764 C2.93236858,22.0753652 3.10207762,21.8643123 3.33196677,21.8437766 C3.56185592,21.8232408 3.76487083,22.0009988 3.78541327,22.24081 Z M10.3446226,22.5683067 C10.3997522,23.2263531 9.92714777,23.8070461 9.28903108,23.8653208 C8.65091439,23.9235955 8.08892722,23.4373845 8.03379762,22.7793381 C7.97866801,22.1212917 8.45127242,21.5405987 9.08938911,21.482324 C9.7275058,21.4240493 10.289493,21.9102603 10.3446226,22.5683067 Z M4.32500015,17.1452824 C4.33869511,17.3051565 4.22555575,17.4458584 4.07229632,17.4595489 C3.91903688,17.4732394 3.78369361,17.3547341 3.76999865,17.19486 C3.7563037,17.0349858 3.86944306,16.8942839 4.02270249,16.8805934 C4.17596192,16.8669029 4.3113052,16.9854082 4.32500015,17.1452824 Z M11.9568428,20.7295746 C11.9910802,21.12926 11.7082317,21.4810148 11.3250832,21.515241 C10.9419346,21.5494672 10.6035764,21.253204 10.569339,20.8535187 C10.5351016,20.4538333 10.81795,20.1020785 11.2010986,20.0678522 C11.5842472,20.033626 11.9226054,20.3298892 11.9568428,20.7295746 Z M11.265543,11.1558064 C11.2860854,11.3956176 11.1163764,11.6066705 10.8864872,11.6272063 C10.6565981,11.647742 10.4535832,11.4699841 10.4330407,11.2301729 C10.4124983,10.9903616 10.5822073,10.7793087 10.8120965,10.758773 C11.0419856,10.7382373 11.2450006,10.9159952 11.265543,11.1558064 Z M22.0607185,7.01873351 C22.0744134,7.17860766 21.9612741,7.31930959 21.8080147,7.33300008 C21.6547552,7.34669056 21.5194119,7.22818528 21.505717,7.06831113 C21.492022,6.90843699 21.6051614,6.76773505 21.7584208,6.75404457 C21.9116803,6.74035408 22.0470235,6.85885936 22.0607185,7.01873351 Z M9.83174306,13.9029647 C9.84543801,14.0628389 9.73229865,14.2035408 9.57903922,14.2172313 C9.42577979,14.2309218 9.29043651,14.1124165 9.27674156,13.9525423 C9.2630466,13.7926682 9.37618596,13.6519663 9.52944539,13.6382758 C9.68270483,13.6245853 9.8180481,13.7430906 9.83174306,13.9029647 Z M8.63677277,13.299009 C8.65731521,13.5388202 8.48760616,13.7498731 8.25771701,13.7704089 C8.02782787,13.7909446 7.82481296,13.6131867 7.80427052,13.3733755 C7.78372808,13.1335642 7.95343713,12.9225113 8.18332628,12.9019756 C8.41321542,12.8814399 8.61623034,13.0591978 8.63677277,13.299009 Z M15.108992,14.5090296 C15.1759818,15.3087818 14.6015405,16.0145376 13.8259415,16.0853794 C13.0503424,16.1562212 12.3672892,15.5653226 12.3002994,14.7655704 C12.2333096,13.9658182 12.8077509,13.2600623 13.58335,13.1892205 C14.358949,13.1183788 15.0420022,13.7092774 15.108992,14.5090296 Z M8.08351359,20.7461278 C8.13597862,21.3615725 7.69901141,21.9035373 7.10752,21.95664 C6.5160286,22.0097427 5.99399876,21.5538744 5.94153374,20.9384297 C5.88906871,20.322985 6.32603593,19.7810202 6.91752733,19.7279175 C7.50901874,19.6748148 8.03104857,20.1306831 8.08351359,20.7461278 Z M5.19300312,25.8548751 C5.21354556,26.0946863 5.04383651,26.3057392 4.81394736,26.3262749 C4.58405822,26.3468106 4.38104331,26.1690527 4.36050087,25.9292415 C4.33995844,25.6894303 4.50966748,25.4783774 4.73955663,25.4578416 C4.96944577,25.4373059 5.17246069,25.6150638 5.19300312,25.8548751 Z M16.5200789,13.8770595 C16.5406213,14.1168707 16.3709123,14.3279236 16.1410231,14.3484593 C15.911134,14.3689951 15.7081191,14.1912372 15.6875766,13.9514259 C15.6670342,13.7116147 15.8367433,13.5005618 16.0666324,13.4800261 C16.2965216,13.4594904 16.4995365,13.6372483 16.5200789,13.8770595 Z M11.6516474,22.6579773 C11.6653424,22.8178515 11.552203,22.9585534 11.3989436,22.9722439 C11.2456841,22.9859344 11.1103409,22.8674291 11.0966459,22.7075549 C11.0829509,22.5476808 11.1960903,22.4069788 11.3493497,22.3932884 C11.5026092,22.3795979 11.6379524,22.4981032 11.6516474,22.6579773 Z M9.94844597,25.5001317 C9.96214093,25.6600059 9.84900157,25.8007078 9.69574214,25.8143983 C9.5424827,25.8280888 9.40713943,25.7095835 9.39344447,25.5497093 C9.37974952,25.3898352 9.49288888,25.2491333 9.64614831,25.2354428 C9.79940774,25.2217523 9.93475102,25.3402576 9.94844597,25.5001317 Z M19.9304343,12.1127742 C19.9441292,12.2726483 19.8309899,12.4133503 19.6777304,12.4270407 C19.524471,12.4407312 19.3891277,12.322226 19.3754328,12.1623518 C19.3617378,12.0024777 19.4748772,11.8617757 19.6281366,11.8480852 C19.781396,11.8343948 19.9167393,11.9529 19.9304343,12.1127742 Z M13.8283897,10.5866316 C13.8630333,10.9910585 13.5768294,11.3469862 13.1891355,11.3816185 C12.8014415,11.4162507 12.4590694,11.1164729 12.4244258,10.712046 C12.3897823,10.3076191 12.6759861,9.95169137 13.0636801,9.91705913 C13.451374,9.8824269 13.7937461,10.1822047 13.8283897,10.5866316 Z M12.1527858,13.6353381 C12.1874293,14.039765 11.9012255,14.3956928 11.5135315,14.430325 C11.1258376,14.4649573 10.7834655,14.1651795 10.7488219,13.7607526 C10.7141783,13.3563257 11.0003822,13.0003979 11.3880761,12.9657657 C11.7757701,12.9311335 12.1181422,13.2309113 12.1527858,13.6353381 Z M15.2795833,22.2798754 C15.3001258,22.5196866 15.1304167,22.7307395 14.9005276,22.7512752 C14.6706384,22.771811 14.4676235,22.594053 14.4470811,22.3542418 C14.4265386,22.1144306 14.5962477,21.9033777 14.8261368,21.882842 C15.056026,21.8623062 15.2590409,22.0400642 15.2795833,22.2798754 Z M20.3766267,6.65658268 C20.4108641,7.05626806 20.1280157,7.40802289 19.7448672,7.4422491 C19.3617186,7.47647531 19.0233604,7.18021212 18.989123,6.78052675 C18.9548856,6.38084138 19.237734,6.02908654 19.6208826,5.99486033 C20.0040312,5.96063412 20.3423894,6.25689731 20.3766267,6.65658268 Z M16.4651127,7.55581131 C16.4856551,7.79562253 16.3159461,8.00667543 16.0860569,8.02721116 C15.8561678,8.04774688 15.6531529,7.86998897 15.6326104,7.63017774 C15.612068,7.39036652 15.781777,7.17931362 16.0116662,7.15877789 C16.2415553,7.13824217 16.4445702,7.31600008 16.4651127,7.55581131 Z M13.4729353,17.7456059 C13.5277151,18.3851025 13.0751577,18.9479102 12.46212,19.0026721 C11.8490822,19.0574341 11.3077091,18.583413 11.2529293,17.9439164 C11.1981495,17.3044198 11.6507069,16.741612 12.2637447,16.6868501 C12.8767824,16.6320882 13.4181555,17.1061093 13.4729353,17.7456059 Z M18.1819535,14.4613542 C18.2161909,14.8610396 17.9333425,15.2127944 17.5501939,15.2470206 C17.1670453,15.2812468 16.8286872,14.9849836 16.7944498,14.5852982 C16.7602124,14.1856129 17.0430608,13.833858 17.4262094,13.7996318 C17.8093579,13.7654056 18.1477161,14.0616688 18.1819535,14.4613542 Z M15.5978176,19.4798959 C15.6389024,19.9595184 15.2994844,20.3816242 14.8397061,20.4226956 C14.3799278,20.4637671 13.9738979,20.1082513 13.9328131,19.6286288 C13.8917282,19.1490064 14.2311463,18.7269006 14.6909246,18.6858291 C15.1507029,18.6447577 15.5567327,19.0002735 15.5978176,19.4798959 Z M7.03487713,18.0535421 C7.07497139,18.5321213 6.73125909,18.9544435 6.26717422,18.9968251 C5.80308936,19.0392067 5.39437142,18.6855987 5.35427716,18.2070195 C5.3141829,17.7284403 5.6578952,17.3061181 6.12198007,17.2637365 C6.58606493,17.2213549 6.99478287,17.5749629 7.03487713,18.0535421 Z M6.74092113,23.0341289 C6.78602431,23.5725308 6.39934548,24.0476411 5.87724978,24.0953175 C5.35515408,24.1429939 4.89534853,23.7451824 4.85024535,23.2067805 C4.80514217,22.6683786 5.191821,22.1932683 5.71391671,22.1455919 C6.23601241,22.0979154 6.69581795,22.495727 6.74092113,23.0341289 Z M8.09110779,16.3636114 C8.10480275,16.5234855 7.99166339,16.6641874 7.83840396,16.6778779 C7.68514452,16.6915684 7.54980125,16.5730631 7.53610629,16.413189 C7.52241134,16.2533148 7.6355507,16.1126129 7.78881013,16.0989224 C7.94206956,16.0852319 8.07741284,16.2037372 8.09110779,16.3636114 Z M4.45278162,19.4464929 C4.47332406,19.6863042 4.30361502,19.8973571 4.07372587,19.9178928 C3.84383672,19.9384285 3.64082181,19.7606706 3.62027937,19.5208594 C3.59973694,19.2810482 3.76944598,19.0699953 3.99933513,19.0494595 C4.22922428,19.0289238 4.43223919,19.2066817 4.45278162,19.4464929 Z M20.0120829,15.7152428 C20.0257778,15.8751169 19.9126385,16.0158188 19.759379,16.0295093 C19.6061196,16.0431998 19.4707763,15.9246945 19.4570814,15.7648204 C19.4433864,15.6049462 19.5565258,15.4642443 19.7097852,15.4505538 C19.8630446,15.4368633 19.9983879,15.5553686 20.0120829,15.7152428 Z M22.7773289,5.26576526 C22.7910238,5.42563941 22.6778845,5.56634135 22.524625,5.58003183 C22.3713656,5.59372231 22.2360223,5.47521704 22.2223274,5.31534289 C22.2086324,5.15546874 22.3217718,5.0147668 22.4750312,5.00107632 C22.6282906,4.98738584 22.7636339,5.10589111 22.7773289,5.26576526 Z M17.4714662,16.5111807 C17.521584,17.1094047 17.0919436,17.6373074 16.5118376,17.6902844 C15.9317315,17.7432614 15.4208341,17.3012514 15.3707162,16.7030274 C15.3205984,16.1048034 15.7502388,15.5769007 16.3303449,15.5239236 C16.9104509,15.4709466 17.4213484,15.9129567 17.4714662,16.5111807 Z M21.4967916,9.62948607 C21.5104865,9.78936021 21.3973472,9.93006215 21.2440877,9.94375263 C21.0908283,9.95744312 20.955485,9.83893784 20.9417901,9.67906369 C20.9280951,9.51918954 21.0412345,9.37848761 21.1944939,9.36479712 C21.3477533,9.35110664 21.4830966,9.46961192 21.4967916,9.62948607 Z M11.47512,15.6189664 C11.5162049,16.0985889 11.1767868,16.5206947 10.7170085,16.5617661 C10.2572302,16.6028376 9.85120035,16.2473217 9.81011548,15.7676993 C9.76903061,15.2880768 10.1084487,14.865971 10.568227,14.8248996 C11.0280053,14.7838281 11.4340351,15.139344 11.47512,15.6189664 Z M15.7092042,12.0866914 C15.7434416,12.4863767 15.4605932,12.8381316 15.0774446,12.8723578 C14.6942961,12.906584 14.3559379,12.6103208 14.3217005,12.2106354 C14.2874631,11.81095 14.5703115,11.4591952 14.9534601,11.424969 C15.3366086,11.3907428 15.6749668,11.687006 15.7092042,12.0866914 Z M17.1457336,9.20946791 C17.179971,9.60915329 16.8971226,9.96090812 16.513974,9.99513433 C16.1308254,10.0293605 15.7924672,9.73309735 15.7582298,9.33341198 C15.7239924,8.93372661 16.0068408,8.58197177 16.3899894,8.54774556 C16.773138,8.51351935 17.1114962,8.80978254 17.1457336,9.20946791 Z M18.3016942,11.2692291 C18.3480834,11.8127541 17.9624891,12.2913155 17.4404453,12.3381261 C16.9184015,12.3849366 16.4575955,11.98227 16.4112064,11.4387451 C16.3648172,10.8952201 16.7504115,10.4166587 17.2724553,10.3698481 C17.7944991,10.3230376 18.2553051,10.7257042 18.3016942,11.2692291 Z M19.8777101,9.89987381 C19.9119475,10.2995592 19.6290991,10.651314 19.2459505,10.6855402 C18.8628019,10.7197664 18.5244438,10.4235032 18.4902064,10.0238179 C18.455969,9.62413251 18.7388174,9.27237767 19.121966,9.23815146 C19.5051145,9.20392525 19.8434727,9.50018844 19.8777101,9.89987381 Z" id="Combined-Shape" fill="#FFFFFF" transform="translate(12.864839, 15.663945) rotate(-4.000000) translate(-12.864839, -15.663945) "/>
            </g>
        </g>
    </g>
</svg>