<?xml version="1.0" encoding="UTF-8"?>
<svg width="312px" height="70px" viewBox="0 0 312 70" version="1.1" xmlns="http://www.w3.org/2000/svg" xmlns:xlink="http://www.w3.org/1999/xlink">
    <!-- Generator: Sketch 59.1 (86144) - https://sketch.com -->
    <title>Lines</title>
    <desc>Created with Sketch.</desc>
    <g id="Page-1" stroke="none" stroke-width="1" fill="none" fill-rule="evenodd" stroke-linecap="square">
        <g id="Hyperobjekt-businesscard-v1-Copy-23" transform="translate(-12.000000, -63.000000)" stroke="#B5FAFF" stroke-width="0.3">
            <g id="Lines" transform="translate(12.000000, 63.000000)">
                <line x1="37.5" y1="26.5" x2="63.5" y2="0.5" id="Line" opacity="0.620117188"></line>
                <line x1="9.5" y1="37.5" x2="37.5" y2="26.5" id="Line-Copy-38" opacity="0.690173921"></line>
                <line x1="0.5" y1="16.5" x2="9.5" y2="37.5" id="Line-Copy-40" opacity="0.724469866"></line>
                <line x1="0.5" y1="16.5" x2="22.5" y2="11.5" id="Line-Copy-43" opacity="0.623139881"></line>
                <line x1="22.5" y1="11.5" x2="36.5" y2="26.5" id="Line-Copy-44" opacity="0.444614955"></line>
                <line x1="22.5" y1="11.5" x2="63.5" y2="0.5" id="Line-Copy-45" opacity="0.760277158"></line>
                <line x1="88.5" y1="66.5" x2="69.5" y2="43.5" id="Line-Copy-48" opacity="0.647251674"></line>
                <line x1="104.5" y1="58.5" x2="88.5" y2="66.5" id="Line-Copy-54" opacity="0.646693638"></line>
                <line x1="118.5" y1="44.5" x2="104.5" y2="58.5" id="Line-Copy-57" opacity="0.633928571"></line>
                <line x1="145.5" y1="67.5" x2="104.5" y2="58.5" id="Line-Copy-58" opacity="0.818731399"></line>
                <line x1="104.5" y1="58.5" x2="92.5" y2="44.5" id="Line-Copy-55" opacity="0.654320126"></line>
                <line x1="88.5" y1="66.5" x2="92.5" y2="44.5" id="Line-Copy-56" opacity="0.446475074"></line>
                <line x1="0.5" y1="16.5" x2="37.5" y2="26.5" id="Line-Copy-39" opacity="0.444614955"></line>
                <line x1="90.5" y1="14.5" x2="63.5" y2="0.5" id="Line-Copy"></line>
                <line x1="70.5" y1="42.5" x2="90.5" y2="14.5" id="Line-Copy-4"></line>
                <line x1="69.5" y1="43.5" x2="63.5" y2="0.5" id="Line-Copy-5" opacity="0.632765997"></line>
                <line x1="69.5" y1="44.5" x2="37.5" y2="27.5" id="Line-Copy-6"></line>
                <line x1="93.5" y1="33.5" x2="90.5" y2="14.5" id="Line-Copy-2"></line>
                <line x1="93.5" y1="33.5" x2="136.5" y2="7.5" id="Line-Copy-3"></line>
                <line x1="118.5" y1="44.5" x2="144.5" y2="38.5" id="Line-Copy-12" opacity="0.588076637"></line>
                <line x1="118.5" y1="44.5" x2="145.5" y2="67.5" id="Line-Copy-35" opacity="0.601981027"></line>
                <line x1="211.5" y1="38.5" x2="203.5" y2="59.5" id="Line-Copy-15"></line>
                <line x1="226.5" y1="44.5" x2="211.5" y2="38.5" id="Line-Copy-16"></line>
                <line x1="245.5" y1="25.5" x2="214.5" y2="21.5" id="Line-Copy-27" opacity="0.531133743"></line>
                <line x1="214.5" y1="21.5" x2="183.5" y2="26.5" id="Line-Copy-28"></line>
                <line x1="243.5" y1="4.5" x2="214.5" y2="21.5" id="Line-Copy-29"></line>
                <line x1="243.5" y1="4.5" x2="245.5" y2="25.5" id="Line-Copy-31" opacity="0.524181548"></line>
                <line x1="136.5" y1="7.5" x2="145.5" y2="39.5" id="Line-Copy-32" opacity="0.56422061"></line>
                <line x1="183.5" y1="26.5" x2="145.5" y2="38.5" id="Line-Copy-33" opacity="0.500209263"></line>
                <line x1="118.5" y1="44.5" x2="136.5" y2="7.5" id="Line-Copy-34" opacity="0.571265811"></line>
                <line x1="289.5" y1="26.5" x2="243.5" y2="4.5" id="Line-Copy-30"></line>
                <line x1="225.5" y1="43.5" x2="214.5" y2="21.5" id="Line-Copy-25"></line>
                <line x1="211.5" y1="38.5" x2="214.5" y2="21.5" id="Line-Copy-26"></line>
                <line x1="254.5" y1="69.5" x2="226.5" y2="45.5" id="Line-Copy-18"></line>
                <line x1="254.5" y1="69.5" x2="264.5" y2="42.5" id="Line-Copy-19"></line>
                <line x1="264.5" y1="43.5" x2="289.5" y2="27.5" id="Line-Copy-20"></line>
                <line x1="245.5" y1="25.5" x2="289.5" y2="27.5" id="Line-Copy-21" opacity="0.638044085"></line>
                <line x1="245.5" y1="25.5" x2="254.5" y2="69.5" id="Line-Copy-22" opacity="0.530343192"></line>
                <line x1="245.5" y1="25.5" x2="226.5" y2="43.5" id="Line-Copy-24" opacity="0.603399368"></line>
                <line x1="245.5" y1="25.5" x2="264.5" y2="43.5" id="Line-Copy-23" opacity="0.583077567"></line>
                <line x1="183.5" y1="26.5" x2="136.5" y2="7.5" id="Line-Copy-17"></line>
                <line x1="69.5" y1="43.5" x2="92.5" y2="33.5" id="Line-Copy-14" opacity="0.654203869"></line>
                <line x1="145.5" y1="67.5" x2="145.5" y2="36.5" id="Line-Copy-7"></line>
                <line x1="145.5" y1="67.5" x2="183.5" y2="26.5" id="Line-Copy-8" opacity="0.702915737"></line>
                <line x1="203.5" y1="59.5" x2="183.5" y2="26.5" id="Line-Copy-9"></line>
                <line x1="145.5" y1="67.5" x2="174.5" y2="53.5" id="Line-Copy-10"></line>
                <line x1="174.5" y1="53.5" x2="203.5" y2="59.5" id="Line-Copy-11" opacity="0.666457403"></line>
                <line x1="69.5" y1="43.5" x2="118.5" y2="44.5" id="Line-Copy-36"></line>
                <line x1="93.5" y1="33.5" x2="118.5" y2="44.5" id="Line-Copy-37"></line>
                <line x1="295.5" y1="54.5" x2="263.5" y2="43.5" id="Line-Copy-38" opacity="0.750069754"></line>
                <line x1="305" y1="32.5" x2="295.5" y2="54.5" id="Line-Copy-40" opacity="0.669131324"></line>
                <line x1="285" y1="25.5" x2="305" y2="32.5" id="Line-Copy-41" opacity="0.397042411"></line>
                <line x1="264.5" y1="43.5" x2="305" y2="32.5" id="Line-Copy-42" opacity="0.601143973"></line>
                <line x1="305" y1="32.5" x2="303.5" y2="19.5" id="Line-Copy-43" opacity="0.58530971"></line>
                <line x1="288.5" y1="26.5" x2="303.5" y2="19.5" id="Line-Copy-46" opacity="0.397042411"></line>
                <line x1="268.5" y1="2.5" x2="305.5" y2="10.5" id="Line-Copy-51" opacity="0.610770089"></line>
                <line x1="289.5" y1="26.5" x2="305.5" y2="10.5" id="Line-Copy-52" opacity="0.598423549"></line>
                <line x1="305" y1="32.5" x2="311.5" y2="34.5" id="Line-Copy-39" opacity="0.6"></line>
                <line x1="303.5" y1="19.5" x2="311.5" y2="34.5" id="Line-Copy-47" opacity="0.397042411"></line>
                <line x1="305.5" y1="10.5" x2="303.5" y2="19.5" id="Line-Copy-49" opacity="0.397042411"></line>
                <line x1="268.5" y1="2.5" x2="288.5" y2="26.5" id="Line-Copy-50" opacity="0.680501302"></line>
                <line x1="243.5" y1="4.5" x2="268.5" y2="2.5" id="Line-Copy-53" opacity="0.6"></line>
            </g>
        </g>
    </g>
</svg>